<svg xmlns="http://www.w3.org/2000/svg" width="649" height="1060" viewBox="0 0 649 1060">
  <path fill="none" stroke="#B26300" stroke-width="6" d="M3,0 L3,340.801839 C3,346.687104 5.35803299,352.327006 9.54701186,356.460867 L72.5744817,418.659028 C76.6915914,422.721965 82.2431764,425 88.0274698,425 L324.887302,425 C330.722064,425 336.31785,427.31785 340.443651,431.443651 L468.556349,559.556349 C472.68215,563.68215 475,569.277936 475,575.112698 L475,618.974846 C475,624.757767 477.276957,630.308148 481.338188,634.425012 L614.661812,769.574988 C618.723043,773.691852 621,779.242233 621,785.025154 L621,1022.13895 C621,1027.82439 623.20104,1033.28908 627.141673,1037.38734 L646,1057"/>
</svg>
