<svg xmlns="http://www.w3.org/2000/svg" width="1051" height="367" viewBox="0 0 1051 367">
  <path fill="none" stroke="#FFD329" stroke-width="6" d="M3,325 L3,90.276251 C3,84.3449325 5.39497211,78.6649022 9.64179701,74.5242479 L76.591798,9.24799693 C80.700442,5.24206902 86.2116725,3 91.950001,3 L758.196995,3 C763.84787,3 769.282065,5.17442048 773.37316,9.0725393 L866.62684,97.9274607 C870.717935,101.82558 876.15213,104 881.803005,104 L1026,104 C1038.15026,104 1048,113.849736 1048,126 L1048,233 C1048,245.150264 1038.15026,255 1026,255 L851.881377,255 C846.183837,255 840.708495,257.21039 836.607801,261.165926 L735.229981,358.955151 C731.874868,362.191499 727.395042,364 722.733419,364 L199,364 C186.849736,364 177,354.150264 177,342 L177,40 C177,27.8497355 186.849736,18 199,18 L238,18"/>
</svg>
