<svg xmlns="http://www.w3.org/2000/svg" width="2273" height="1154" viewBox="0 0 2273 1154">
  <g fill="none" fill-rule="evenodd" stroke="#007D32" stroke-width="6" transform="translate(0 3)">
    <path d="M173 653L141.990567 653C129.840302 653 119.990567 662.849736 119.990567 675L119.990567 879M518 653L486.990567 653C474.840302 653 464.990567 662.849736 464.990567 675L464.990567 1151M482 653L491 653C503.150264 653 513 643.150264 513 631L513 323C513 307.536027 525.536027 295 541 295L582 295"/>
    <path d="M0,445 L21,445 C33.1502645,445 43,454.849736 43,467 L43,606.412227 C43,611.9345 45.0768021,617.254814 48.8180077,621.316694 L71.4646403,645.904467 C75.6301219,650.426989 81.4981002,653 87.6466326,653 L1065.11862,653 C1070.81616,653 1076.29151,650.78961 1080.3922,646.834074 L1181.18891,549.605388 C1184.91681,546.009445 1189.8944,544 1195.07398,544 L1384.92318,544 C1390.73671,544 1396.31391,541.698941 1400.43614,537.599621 L1567.59134,371.373056 C1571.69729,367.28992 1577.24748,364.990218 1583.03803,364.972777 L1896.92614,364.027331 C1902.73791,364.009826 1908.30665,361.693346 1912.41622,357.58378 L2270,0"/>
  </g>
</svg>
