<svg xmlns="http://www.w3.org/2000/svg" xmlns:xlink="http://www.w3.org/1999/xlink" width="2616" height="1201" viewBox="0 0 2616 1201">
  <defs>
    <path id="elizabeth-a" d="M0.996010109,1198 L0.999958622,673.999086 C1.00004741,661.848868 10.8497821,651.999224 23,651.999247 L487,652 L571,570 C573,567.333333 577,566 583,566 C679.504224,566 776.008448,566 872.512672,566 L872.512672,566 C878.568026,566 884.35565,568.495868 888.511946,572.899562 L959.488054,648.100438 C963.64435,652.504132 969.431974,655 975.487328,655 L1292.09784,655 C1297.80774,655 1303.29397,652.780034 1307.39711,648.809247 L1356.63631,601.158405 C1360.71958,597.206862 1366.1734,594.98846 1371.85559,594.967798 L1628.91498,594.033036 C1634.73336,594.011879 1640.32319,596.296488 1644.46115,600.386882 L1718.57213,673.646009 C1722.69037,677.716922 1728.24759,680 1734.03829,680 L1828.89677,680 C1834.72593,680 1840.31682,677.686585 1844.44168,673.567775 L2519,0"/>
    <path id="elizabeth-b" d="M1801,680 L1830,680 C1842.15026,680 1852,689.849736 1852,702 L1852,855.167298 C1852,867.252031 1861.74768,877.07441 1873.83207,877.166657 L1974.04147,877.931614 C1979.78485,877.975457 1985.31765,875.771487 1989.45779,871.790583 L2028.61266,834.141673 C2032.71092,830.20104 2038.17561,828 2043.86105,828 L2324.8873,828 C2330.72206,828 2336.31785,830.31785 2340.44365,834.443651 L2611,1105"/>
  </defs>
  <g fill="none" fill-rule="evenodd" transform="translate(2 3)">
    <use stroke="#B91090" stroke-width="6" xlink:href="#elizabeth-a"/>
    <use stroke="#FFF" stroke-width="2" xlink:href="#elizabeth-a"/>
    <g>
      <use stroke="#B91090" stroke-width="6" xlink:href="#elizabeth-b"/>
      <use stroke="#FFF" stroke-width="2" xlink:href="#elizabeth-b"/>
    </g>
  </g>
</svg>
