<svg xmlns="http://www.w3.org/2000/svg" width="1401" height="930" viewBox="0 0 1401 930">
  <path fill="none" stroke="#949FA5" stroke-width="6" d="M4,1 L3.07972192,107.752257 C3.02873486,113.666756 5.36143214,119.352654 9.55155122,123.527196 L265.527353,378.551415 C269.670887,382.679546 272,388.287746 272,394.136706 L272,654.991336 C272,660.764479 274.269284,666.306284 278.318371,670.421388 L449.681629,844.578612 C453.730716,848.693716 456,854.235521 456,860.008664 L456,905 C456,917.150264 465.849736,927 478,927 L627.212628,927 C632.854184,927 638.280151,924.832728 642.369265,920.946045 L730.615624,837.068318 C734.713745,833.173074 740.154233,831.005154 745.808208,831.014392 L1339.99891,831.985292 C1345.76756,831.994718 1351.30912,829.738001 1355.43001,825.70121 L1391.36704,790.497598 C1395.60789,786.34329 1397.98982,780.651405 1397.97178,774.71484 L1397.02758,464.07351 C1397.00991,458.261942 1394.69345,452.693448 1390.58403,448.58403 L1341,399"/>
</svg>
