<svg xmlns="http://www.w3.org/2000/svg" width="1715" height="1319" viewBox="0 0 1715 1319">
  <g fill="none" fill-rule="evenodd" stroke="#0019A8" stroke-width="6" transform="translate(3)">
    <path d="M0,1316 L340.560222,976.421219 C344.684183,972.309144 350.270345,970 356.094108,970 L946.001138,970 C951.768467,970 957.30517,967.735272 961.419216,963.693401 L1062.58078,864.306599 C1066.69483,860.264728 1072.23153,858 1077.99886,858 L1246.8873,858 C1252.72206,858 1258.31785,855.68215 1262.44365,851.556349 L1377.55635,736.443651 C1381.68215,732.31785 1384,726.722064 1384,720.887302 L1384,646.033977 C1384,640.245827 1386.28107,634.69086 1390.3488,630.573063 L1702.6512,314.426937 C1706.71893,310.30914 1709,304.754173 1709,298.966023 L1709,0"/>
    <path d="M438 970L414.763395 970C408.546807 970 402.6204 967.369916 398.449608 962.760093L389.618499 952.999394C387.289588 950.425334 386 947.077863 386 943.606607L386 285.112698C386 279.277936 383.68215 273.68215 379.556349 269.556349L317.443651 207.443651C313.31785 203.31785 307.722064 201 301.887302 201L9 201M134 1183L121.869618 1194.49194C117.484114 1198.64663 115 1204.42187 115 1210.4629L115 1261.64823C115 1267.02874 113.028231 1272.22272 109.457642 1276.24775L95.4549653 1292.03258C90.4958474 1297.62286 83.0380566 1300.31355 75.6520652 1299.17724L71.25 1298.5C61.7630491 1297.04047 54.5731693 1289.17071 53.9744272 1279.59083L53 1264"/>
  </g>
</svg>
