<svg xmlns="http://www.w3.org/2000/svg" width="898" height="1166" viewBox="0 0 898 1166">
  <path fill="none" stroke="#0098D8" stroke-width="6" d="M255,1163 L9.47460863,918.448916 C5.32987482,914.320629 3,908.711591 3,902.86167 L3,555.136887 C3,549.287819 5.32919715,543.679526 9.47286454,539.551378 L263.561394,286.414492 C267.684796,282.306533 273.268068,280 279.088529,280 L504.68208,280 C510.637936,280 516.339308,277.58523 520.483364,273.307495 L538.801285,254.398674 C542.776961,250.29475 545,244.805039 545,239.091179 L545,144.014479 C545,138.237887 547.271989,132.693058 551.325357,128.57733 L668.536586,9.56285134 C672.671621,5.36419982 678.318251,3 684.211229,3 L898,3"/>
</svg>
